<?xml version="1.0" encoding="UTF-8"?>
<svg version="1.1" viewBox="0 0 2048 1536" width="1280" height="1280" xmlns="http://www.w3.org/2000/svg">
<path transform="translate(534,396)" d="m0 0h60l10 1 4 5 3 8 8 29 10 5 6-1 21-14 9-4 7 1 9 6 16 15 22 22 8 7 8 10 1 6-4 11-7 12-7 10v8l4 8 9 3 24 6 7 4 3 5 1 15v70l-6 7-16 5-19 4h-2l-2 5-3 5v6l14 22 4 8v10l-9 11-15 16-34 34h-16l-22-13-7-4-4 1-10 5-3 17-3 12-6 10-3 3-3 1h-83l-2-1v-2h-2l-4-5-2-1v213l-1 26-5 12-9 12-5 6h-2l-1 3-13 9-14 8-19 9-33 11-22 5-27 5-32 4-22 1h-62l-32-2-40-6-28-6-29-9-21-9-16-9-11-8-11-9-8-10-7-14-2-12-1-13v-367l2-14 2-9 6-11 9-10 5-5 9-8 18-11 21-10 30-10 27-6 27-5 25-3 17-1h73l26 2 15 1h20l26-6 4-2 4-8-1-7-3-6-11-16-4-8 1-6 6-9 9-11 41-41 7-4h6l9 4 24 14h7l6-3 8-30 3-8 5-6zm3 33-2 2-6 28-3 6-23 10-17 7-5-1-20-11-7-5-4 1-6 5-7 8-14 14-1 7 11 15 4 7 1 9-6 16-8 19-5 5-11 4-22 5v42l1 5 14 2 12 2 8 4 8 16 9 23v7l-7 14-9 12 2 6 15 15 8 7 5 4 5 1 11-8 11-7 5-1 10 2 28 11 5 2 3 8 5 22 4 6 38 1 6-2 4-16 4-15 5-5 32-14h10l12 6 12 8 5 2 7-7 8-7 13-13 2-5-6-12-7-10-3-8 3-13 7-15 5-13 6-5 25-6 6-2v-43l-2-3-30-6-4-4-11-23-5-13 1-9 3-7 9-14 4-5-1-4-13-13-11-9-6-7-9 4-17 11-3 1h-9l-16-6-15-6-7-5-4-11-5-22-1-1zm-302 151-32 3-37 6-30 8-22 8-16 8-10 6-10 8-6 7-2 6v9l4 8 9 10 18 11 17 8 25 8 27 7 30 5 48 4h48l48-4 25-4 19-5 10-9 5-9v-10l-4-7-7-3-25-5-8-4-3-6-1-45-1-12-1-2-14-2-38-3zm-165 117v82l3 6 8 8 18 11 21 10 28 9 27 6 33 5 32 3h67l39-4 32-6 32-8 24-9 20-11 14-11 6-8 1-6-2-6-12 6-3 2-11 1-11-8-17-17-8-7-15-15h-7l-44 7-41 4h-65l-42-4-44-8-30-8-24-9-21-11zm0 128-1 16v57l1 10 9 10 14 10 17 9 21 8 24 7 23 5 18 3 26 3 15 1h68l27-2 22-3 30-6 26-7 17-6 16-8 11-6 11-8 8-8 1-2 1-46v-36l-5 1-27 13-35 12-30 7-39 6-36 3h-66l-33-3-47-8-28-7-23-8-25-12-8-5zm0 127v80l3 6 8 9 17 11 21 10 31 10 33 7 28 4 21 2h79l31-3 35-6 31-8 29-11 19-10 12-11 5-7 1-3 1-59v-20l-9 3-19 9-26 10-24 7-29 6-28 4-20 2h-96l-35-4-38-7-25-7-25-9-16-8-12-7z" fill="#3441FC"/>
<path transform="translate(1229,736)" d="m0 0h41l16 72 11 52 11 50 10 45 3 16h2l1-11 10-46 15-68 19-87 5-22 1-1h39l1 1 2 118 3 164v9l-1 1h-32l-1-18-2-109-1-81-17 73-10 43-19 82-3 10h-23l-4-14-20-87-15-65-10-43-3 196v12l-1 1h-32l-1-1v-21l2-128 2-84z" fill="#3441FC"/>
<path transform="translate(944,734)" d="m0 0h33l18 4 14 7 11 9 8 11 6 13 4 14 2 13 1 14v126l-2 22-4 16-5 13-7 11-11 11-10 6-3 2 9 11 12 13 6 5v8l-5 24h-4l-11-8-16-16-13-17-9-13-23-1-18-4-16-8-11-10-9-14-6-16-3-14-2-18v-131l2-19 4-17 7-16 8-11 9-8 16-8 11-3zm11 31-14 3-8 6-6 8-3 7-2 11-1 17v131l2 23 4 12 6 8 6 5 8 3 5 1h18l10-3 9-6 6-10 3-10 1-8v-161l-2-13-4-9-5-7-9-5-6-2-8-1z" fill="#3441FC"/>
<path transform="translate(763,734)" d="m0 0h27l14 3 12 5 8 6 5 5 6 7 7 14 5 18 2 11v6l-24 7-10 2-1-1-4-23-4-11-6-9-7-5-5-2-6-1h-14l-10 3-7 5-6 12-1 6v12l3 13 7 11 13 13 11 9 13 12 11 9 17 16 9 9 12 16 8 16 4 13 2 15v13l-2 13-4 12-6 11-9 10-7 6-14 7-11 3-6 1h-25l-16-4-16-8-10-9-9-13-5-10-6-20-2-13v-8l6-2 28-8h2l4 24 5 16 6 11 8 7 11 4h16l10-4 7-6 4-8 2-13-1-16-4-12-9-13-21-21-11-9-14-13-8-7-20-18-8-10-8-16-4-16v-30l4-15 5-10 9-11 10-8 11-5 10-3z" fill="#3441FC"/>
<path transform="translate(1980,817)" d="m0 0h13l9 3 5 3 7 10 4 13 1 16v166l-1 1h-37l-1-1-1-166-3-8-5-5-4-1h-7l-11 4-10 7h-2v169l-1 1h-38l-1-2v-205l1-2h38l1 19 18-13 12-6z" fill="#3441FC"/>
<path transform="translate(1506,817)" d="m0 0h16l13 2 13 5 10 9 6 9 4 10 2 8 1 9 1 109 2 37 1 13-1 1h-34l-2-6-3-19-1-3-6 12-9 10-5 4-10 4-4 1h-15l-10-4-6-4-9-9-7-14-3-12v-14l2-12 4-11 6-11 11-12 12-9 19-10 24-10 4-2v-20l-1-15-3-9-7-6-3-1h-12l-7 3-4 5-3 7-1 5-1 19h-19l-19-1-1-3 2-17 3-12 4-10 8-11 11-8 13-5zm25 105-22 14-12 12-5 8-3 9v14l3 10 4 6 5 3 9 1 10-4 12-11 1-2v-60z" fill="#3441FC"/>
<path transform="translate(1795,817)" d="m0 0h14l13 2 11 4 10 7 7 8 6 12 5 19 1 10v91l-3 19-4 12-6 11-7 8-11 7-9 3-11 2h-21l-16-4-12-7-7-7-7-12-5-16-2-11-1-11v-76l2-20 4-16 7-14 9-10 10-6 13-4zm-1 29-7 4-5 8-3 16v100l2 14 5 10 6 4 3 1h13l8-4 4-6 2-6 1-7 1-41v-39l-1-31-2-10-5-8-5-4-2-1z" fill="#3441FC"/>
<path transform="translate(547,515)" d="m0 0h23l17 4 13 5 15 10 14 14 7 11 7 16 3 11v34l-4 12-8 16-6 9-11 12-13 9-17 8-18 4h-17l-17-3-16-7-12-7-13-11-9-13-7-14-5-17-1-5v-22l6-21 8-16 9-11 11-11 13-8 15-6zm4 33-13 4-10 6-4 3v2l-3 1-8 10-5 11-2 6-1 7v10l2 10 4 9 7 11 7 7 19 10 5 1h19l14-4 11-7 12-12 6-13 2-6v-23l-4-12-8-12-7-7-9-6-13-5-4-1z" fill="#3441FC"/>
<path transform="translate(1082,736)" d="m0 0h40l1 3v260l74 1 1 28-1 1h-115z" fill="#3441FC"/>
<path transform="translate(1651,817)" d="m0 0h13l12 2 14 7 7 6 9 14 5 13 2 8v5l-25 10h-2l-6-21-5-8-5-4-4-2h-14l-7 4-5 8-1 4v9l6 12 7 7 8 7 17 16 10 9 12 12 7 10 6 12 3 12v19l-3 12-6 12-10 10-12 6-11 3-6 1h-20l-12-3-13-7-11-11-6-10-5-15-2-12 7-3 22-7 4 1 5 19 6 11 6 5 6 2h14l8-5 3-4 2-7v-10l-4-12-8-10-11-9-11-10-11-9-13-12-9-10-7-12-4-16v-14l4-16 6-11 7-7 10-6 12-4z" fill="#3441FC"/>
</svg>
