<?xml version="1.0" encoding="UTF-8"?>
<svg version="1.1" viewBox="0 0 800 800" width="1280" height="1280" xmlns="http://www.w3.org/2000/svg">
<path transform="translate(475,91)" d="m0 0h72l5 4 4 15 5 18 7 3 5 1 5-3 10-7 8-5 8-2 8 5 12 11 19 19 8 7 7 8 2 4-1 9-9 15-6 8 1 7 4 7 13 3 16 4 5 3 2 5 1 19v52l-5 6-9 3-22 5-5 8v6l8 12 6 10 2 6-1 6-7 8-12 13-29 29-3 2h-9l-14-8-11-7-4-1-10 5-3 16-3 12-6 8-4 1h-70l-8-8v145l-1 58-4 10-8 11-10 10-14 9-16 8-18 7-20 6-28 6-29 4-25 2h-57l-32-3-30-5-22-5-25-8-18-8-15-9-11-9-8-8-5-8-3-7-2-15v-322l2-13 6-12 9-10 12-10 15-9 20-9 25-8 34-7 32-4 12-1h64l45 4 27-6 4-2 4-8-1-6-12-17-4-8 1-5 6-9 11-12 30-30 8-4 8 2 15 9 8 5 8-1 4-2 4-16 4-15 5-6zm16 28-3 12-3 14-3 5-31 13-5 1-14-7-12-8-4 2-7 8-14 14-1 6 10 13 4 8v6l-8 19-5 12-5 4-16 4-10 2-1 1v28l1 10 23 4 6 3 4 6 6 15 5 12v7l-4 8-7 10-3 4 2 5 8 8 8 7 7 7 4 1 15-11 5-3h9l19 8 11 4h2l3 11 4 18 3 3h34l3-2 5-24 4-6 15-6 16-7 8 1 15 9 5 4 5-1v-2l4-2 17-17 2-3-1-5-10-15-3-7 2-9 6-13 5-13 4-4 21-5 7-2v-34l-2-5-24-4-4-2-7-14-7-17-1-2 1-9 6-10 7-10 1-3-16-15-8-7-2-3-5 1-16 11-4 2h-7l-27-11-5-3-3-5-6-25zm-253 128-31 3-30 5-24 6-22 8-19 10-9 7-6 7-2 4v9l5 8 7 7 11 7 14 7 20 7 26 7 31 5 37 3h39l39-3 26-4 15-4 7-6 6-10v-6l-3-6-4-3-25-5-6-3-3-7-1-45-1-4-44-4zm-143 100v70l9 10 14 9 16 8 27 9 23 5 34 5 24 2h50l33-3 29-5 28-7 22-8 18-10 11-9 4-5 2-6-1-5-4 1-10 6-9 1-8-6-14-14-8-7-14-14-36 6-27 3-14 1h-56l-33-3-35-6-24-6-23-8-16-8-10-6zm0 107-1 31v19l1 21 7 8 12 9 16 8 15 6 24 7 25 5 33 4 13 1h51l36-3 32-6 23-6 17-6 16-8 14-9 7-7 2-4 1-51v-18l-17 8-12 6-27 9-19 5-36 6-32 3h-59l-32-3-35-6-27-7-20-7-20-10zm0 109v67l3 6 6 7 14 9 16 8 27 9 27 6 28 4 24 2h52l40-4 28-5 25-7 21-8 17-9 11-10 4-8 1-67-19 9-16 7-24 8-26 6-25 4-32 3h-63l-36-4-33-6-25-7-19-7-16-8-8-5z" fill="#3949FD"/>
<path transform="translate(503,192)" d="m0 0h14l13 2 14 5 11 7 12 11 8 11 6 14 3 12 1 7-1 17-3 12-8 16-9 12h-2v2l-12 9-14 7-11 3-9 1h-10l-14-2-13-5-11-6-13-11-9-13-6-14-3-12-1-17 4-17 7-16 7-9 8-9 15-10 14-5zm2 28-12 3-10 6-10 10-6 12-2 7v16l3 10 7 11 8 8 14 7 4 1h19l11-4 9-6 8-8 6-12 2-6v-18l-4-12-8-11-10-8-12-5-6-1z" fill="#3949FD"/>
</svg>
